PathFileType	4	(X/Y/Z)	C:\My Captures\DataSMARTClinic\0004~001 ID\0004~aa~STRATO_01\W2_STRATO_ID_01.trc
DataRate	CameraRate	NumFrames	NumMarkers	Units	OrigDataRate	OrigDataStartFrame	OrigNumFrames
250.00	250.00	11	18	mm	250.00	631	1811
Frame#	Time	r.should			l.should			c7			r.asis			l.asis			sacrum			r.bar1			l.bar1			r.knee1			l.knee1			r.bar2			r.mall			l.bar2			l.mall			r.met			r.heel			l.heel			l.met			
		X1	Y1	Z1	X2	Y2	Z2	X3	Y3	Z3	X4	Y4	Z4	X5	Y5	Z5	X6	Y6	Z6	X7	Y7	Z7	X8	Y8	Z8	X9	Y9	Z9	X10	Y10	Z10	X11	Y11	Z11	X12	Y12	Z12	X13	Y13	Z13	X14	Y14	Z14	X15	Y15	Z15	X16	Y16	Z16	X17	Y17	Z17	X18	Y18	Z18	

1504	6.016000	1808.529377	1263.779163	416.445643	1731.086731	1265.648127	129.640862	1696.962953	1318.267941	282.830566	1856.729269	837.347627	422.660828	1871.195793	855.542481	156.654119	1654.678822	876.482844	274.104387	1774.394989	757.248759	474.426925	1825.042248	757.196248	93.728185	1655.941248	433.342069	426.693797	1924.816132	431.272507	138.935104	1607.095242	386.077374	427.589118	1439.617753	141.358316	391.185284	1936.079860	362.864673	140.077159	1989.679813	79.844430	185.184509	1522.515178	44.756141	365.577579	1377.144456	144.639239	351.199746	1929.277301	44.898421	227.897525	2115.978718	52.023616	216.074914	
1505	6.020000	1813.231945	1264.369965	415.700585	1735.763431	1265.927196	128.938541	1701.479911	1318.696618	282.231718	1861.344814	837.543666	421.930283	1875.787735	856.422544	156.182438	1659.210682	876.932681	273.809671	1779.223323	757.264256	473.705113	1829.546332	757.931232	93.132898	1662.135005	433.066666	426.306427	1929.381967	431.513369	138.547271	1613.004923	386.255890	427.346766	1442.633629	143.681020	391.171515	1939.843655	362.927258	139.723301	1990.454793	79.679042	185.269684	1523.312092	44.739265	365.620166	1380.693436	148.113236	350.658506	1929.571867	45.033641	227.915585	2116.376162	51.178265	216.569617	
1506	6.024000	1817.919731	1265.009403	414.960653	1740.454197	1266.277075	128.238067	1707.420707	1319.313884	281.409740	1865.904450	837.800801	421.202421	1880.364776	857.354522	155.668959	1663.789511	877.416730	273.491383	1783.843994	757.288218	473.037362	1833.950043	758.485556	92.472419	1668.552876	432.921350	426.151037	1933.440685	431.563556	138.114855	1619.074702	386.410773	427.117407	1445.844412	146.067411	391.153783	1943.422198	362.980664	139.348045	1990.963936	79.451419	185.593292	1524.172783	44.724751	365.658045	1384.583831	151.549637	349.796116	1929.780722	45.153271	227.881238	2116.685867	50.477464	217.260033	
1507	6.028000	1822.623968	1265.671253	414.221555	1745.157719	1266.697168	127.488881	1713.673650	1320.000052	280.517370	1870.390296	838.133872	420.459181	1884.922743	858.314037	155.139282	1668.368101	877.948701	273.148358	1788.454056	757.394254	472.381711	1838.259339	758.876860	91.748923	1675.171375	432.918876	426.228553	1937.023640	431.496471	137.655601	1625.356555	386.545897	426.907182	1449.208021	148.394138	391.067028	1946.773648	362.976432	138.974190	1991.399169	79.229102	185.993925	1525.085211	44.699606	365.688205	1388.649106	155.176520	349.359781	1929.958820	45.279220	227.832481	2117.007732	49.888931	218.103603	
1508	6.032000	1827.268004	1266.375303	413.472921	1749.869227	1267.182231	126.762465	1717.905045	1320.494294	279.827565	1874.849319	838.554859	419.699728	1889.494419	859.274626	154.586017	1672.968149	878.452897	272.781283	1793.044925	757.547677	471.709132	1842.490673	759.170651	90.959035	1682.014942	432.582974	426.015049	1940.272689	431.414783	137.135640	1631.807446	386.678606	426.701605	1452.799201	150.619015	390.916139	1949.892521	362.954587	138.577551	1991.396666	78.538850	185.766786	1526.037574	44.664886	365.702987	1393.058658	158.900678	348.977387	1930.171013	45.436416	227.828324	2117.376804	49.401864	218.975857	
1509	6.036000	1831.866622	1267.115116	412.700564	1754.598856	1267.724752	126.038343	1719.774127	1320.748329	279.355675	1879.277468	839.008093	418.894291	1894.075394	860.257626	153.998300	1677.531362	879.012823	272.378176	1797.608495	757.694364	470.977604	1846.670866	759.435713	90.128154	1688.947082	432.091892	425.669819	1943.263412	431.370586	136.607826	1638.431072	386.782169	426.506907	1456.740141	153.002083	390.847504	1952.822924	362.911820	138.154954	1991.727829	78.156129	185.863212	1527.079105	44.618033	365.696192	1397.899032	162.527084	348.169833	1930.342913	45.542523	227.813452	2117.773294	48.989441	219.756812	
1510	6.040000	1836.451054	1267.883539	411.939085	1759.356022	1268.274546	125.322357	1725.189620	1321.399093	278.373748	1883.680344	839.531720	418.085694	1898.612261	861.230016	153.380498	1682.053566	879.591644	271.954894	1802.176833	757.827044	470.234036	1850.827932	759.751320	89.280307	1696.093559	431.543827	425.339401	1946.044087	431.351036	136.168033	1645.307779	386.879861	426.344007	1461.002111	155.418903	390.792966	1955.537319	362.855732	137.775645	1992.141247	77.910475	186.051250	1528.184175	44.561047	365.680605	1402.925968	166.286349	347.781807	1930.528522	45.656130	227.835521	2118.148327	48.616268	220.337972	
1511	6.044000	1840.984225	1268.670917	411.201507	1764.120340	1268.847704	124.604121	1731.279492	1322.184682	277.425379	1888.035774	840.095401	417.280346	1903.106928	862.163305	152.771935	1686.548829	880.199492	271.495819	1806.745410	757.963896	469.440192	1854.917645	760.134399	88.467449	1703.763008	431.051314	425.343424	1948.668480	431.379259	135.725513	1652.381182	386.970162	426.209420	1465.551376	157.865450	390.761346	1958.037615	362.797856	137.431905	1992.559552	77.775225	186.239824	1529.365778	44.512287	365.632862	1408.467650	170.016259	347.105443	1930.704117	45.749083	227.869064	2118.465900	48.274785	220.675573	
1512	6.048000	1845.461726	1269.491315	410.453945	1768.895745	1269.470453	123.885982	1734.784126	1322.869778	277.047694	1892.378807	840.719938	416.479677	1907.589912	863.062978	152.149528	1691.038966	880.825043	271.009862	1811.261058	758.063257	468.604386	1859.027505	760.633945	87.699175	1711.343527	430.488110	425.238848	1951.107979	431.375116	135.248750	1659.661889	387.059897	426.103830	1470.390797	160.271838	390.709102	1960.371494	362.775117	136.994705	1992.927432	77.716649	186.395437	1530.597806	44.419557	365.563840	1414.359212	173.620716	346.296042	1930.786848	45.788631	227.877200	2118.727684	47.956195	220.799819	
1513	6.052000	1849.855781	1270.343661	409.715533	1773.689747	1270.152569	123.153284	1739.050627	1323.797822	276.484042	1897.217751	841.758490	415.566236	1912.079811	863.977373	151.543379	1695.503473	881.462574	270.451516	1815.839529	758.218825	467.705667	1863.161922	761.242867	86.978421	1719.035149	429.901421	425.160587	1953.389406	431.333244	134.762794	1667.142749	387.140155	426.012814	1475.583434	162.618160	390.683949	1962.422132	362.689495	136.543602	1993.186712	77.659890	186.506689	1531.422615	43.935098	365.320504	1420.673013	177.115411	345.461845	1930.944681	45.872062	227.934182	2118.939400	47.690194	220.808387	
1514	6.056000	1854.217768	1271.210074	408.975929	1778.434992	1270.819426	122.409917	1741.824150	1323.907375	275.534868	1902.577162	843.281388	414.510012	1916.485786	864.851892	150.955513	1699.852705	882.168651	269.846380	1820.355296	758.343756	466.830075	1867.319822	761.933923	86.297274	1726.845980	429.210275	425.094604	1955.536723	431.245506	134.284243	1674.815536	387.212932	425.918400	1481.083989	164.915442	390.681654	1964.327812	362.639725	136.093557	1993.390679	77.602357	186.575815	1531.660438	42.973693	364.772201	1427.359939	180.631757	344.593048	1931.060791	45.933109	227.973595	2119.117737	47.472239	220.776781	
